<mxfile host="app.diagrams.net" agent="Mozilla/5.0 (X11; Linux x86_64; rv:133.0) Gecko/20100101 Firefox/133.0" version="26.0.12">
  <diagram name="Page-1" id="kSNyL3YzPaN0ILMugO6M">
    <mxGraphModel dx="848" dy="788" grid="1" gridSize="10" guides="1" tooltips="1" connect="1" arrows="1" fold="1" page="1" pageScale="1" pageWidth="850" pageHeight="1100" math="1" shadow="0">
      <root>
        <mxCell id="0" />
        <mxCell id="1" parent="0" />
        <mxCell id="rP4cWOcRx5rP6SbN7MxK-1" value="" style="rounded=0;whiteSpace=wrap;html=1;fillColor=#f8cecc;strokeColor=#b85450;" vertex="1" parent="1">
          <mxGeometry x="400" y="300" width="60" height="30" as="geometry" />
        </mxCell>
        <mxCell id="rP4cWOcRx5rP6SbN7MxK-2" value="" style="rounded=0;whiteSpace=wrap;html=1;fillColor=#f8cecc;strokeColor=#b85450;" vertex="1" parent="1">
          <mxGeometry x="400" y="350" width="60" height="30" as="geometry" />
        </mxCell>
        <mxCell id="rP4cWOcRx5rP6SbN7MxK-3" value="" style="rounded=0;whiteSpace=wrap;html=1;fillColor=#f8cecc;strokeColor=#b85450;" vertex="1" parent="1">
          <mxGeometry x="400" y="410" width="60" height="30" as="geometry" />
        </mxCell>
        <mxCell id="rP4cWOcRx5rP6SbN7MxK-4" value="Generator" style="text;html=1;align=center;verticalAlign=middle;whiteSpace=wrap;rounded=0;" vertex="1" parent="1">
          <mxGeometry x="400" y="230" width="60" height="30" as="geometry" />
        </mxCell>
        <mxCell id="rP4cWOcRx5rP6SbN7MxK-6" value="" style="rounded=0;whiteSpace=wrap;html=1;fillColor=#d5e8d4;strokeColor=#82b366;" vertex="1" parent="1">
          <mxGeometry x="310" y="350" width="60" height="30" as="geometry" />
        </mxCell>
        <mxCell id="rP4cWOcRx5rP6SbN7MxK-7" value="" style="rounded=0;whiteSpace=wrap;html=1;fillColor=#d5e8d4;strokeColor=#82b366;" vertex="1" parent="1">
          <mxGeometry x="310" y="410" width="60" height="30" as="geometry" />
        </mxCell>
        <mxCell id="rP4cWOcRx5rP6SbN7MxK-8" value="State recognition" style="text;html=1;align=center;verticalAlign=middle;whiteSpace=wrap;rounded=0;" vertex="1" parent="1">
          <mxGeometry x="310" y="270" width="60" height="30" as="geometry" />
        </mxCell>
        <mxCell id="rP4cWOcRx5rP6SbN7MxK-9" value="" style="rounded=0;whiteSpace=wrap;html=1;fillColor=#ffe6cc;strokeColor=#d79b00;" vertex="1" parent="1">
          <mxGeometry x="500" y="300" width="60" height="30" as="geometry" />
        </mxCell>
        <mxCell id="rP4cWOcRx5rP6SbN7MxK-10" value="" style="rounded=0;whiteSpace=wrap;html=1;fillColor=#ffe6cc;strokeColor=#d79b00;" vertex="1" parent="1">
          <mxGeometry x="500" y="350" width="60" height="30" as="geometry" />
        </mxCell>
        <mxCell id="rP4cWOcRx5rP6SbN7MxK-11" value="" style="rounded=0;whiteSpace=wrap;html=1;fillColor=#ffe6cc;strokeColor=#d79b00;" vertex="1" parent="1">
          <mxGeometry x="500" y="410" width="60" height="30" as="geometry" />
        </mxCell>
        <mxCell id="rP4cWOcRx5rP6SbN7MxK-12" value="Recognition" style="text;html=1;align=center;verticalAlign=middle;whiteSpace=wrap;rounded=0;" vertex="1" parent="1">
          <mxGeometry x="500" y="230" width="60" height="30" as="geometry" />
        </mxCell>
        <mxCell id="rP4cWOcRx5rP6SbN7MxK-13" value="This is how it is now with RNN in the red boxes. " style="text;html=1;align=center;verticalAlign=middle;whiteSpace=wrap;rounded=0;" vertex="1" parent="1">
          <mxGeometry x="340" y="190" width="180" height="30" as="geometry" />
        </mxCell>
        <mxCell id="rP4cWOcRx5rP6SbN7MxK-16" value="&lt;font style=&quot;font-size: 18px;&quot;&gt;&lt;b&gt;Attention in the model.&lt;/b&gt;&lt;/font&gt;&lt;br&gt;&lt;br&gt;&lt;br&gt;I now have two ideas. &lt;br&gt;1 is that we add attention, second is that we utilize transformers.&lt;br&gt;&lt;br&gt;We would encode the same with the recognition model. However, I am unsure about the state transition F if we just use attention. If we use transformers then I think it should be fairly straight forward as we can train it similar to before.&amp;nbsp; " style="text;html=1;whiteSpace=wrap;overflow=hidden;rounded=0;" vertex="1" parent="1">
          <mxGeometry x="105" y="480" width="240" height="250" as="geometry" />
        </mxCell>
        <mxCell id="rP4cWOcRx5rP6SbN7MxK-17" value="&lt;h1 style=&quot;margin-top: 0px;&quot;&gt;&lt;font style=&quot;font-size: 18px;&quot;&gt;Model based tDLGM&lt;/font&gt;&lt;br&gt;&lt;/h1&gt;&lt;p&gt;I also have one idea for model based tDLGM which is in parallel to this attention business.&lt;br&gt;&lt;br&gt;Basically we want to have two things, the state transition and the action which influences this state transition. &lt;br&gt;&lt;br&gt;Doing this requires us to somehow get action into the model. &lt;br&gt;What if we have two encoders? One is the state recognition and another (the yellow recognition model) is responsible for encoding the action.&lt;br&gt;&lt;br&gt;We could then argue that the state is responsible for the mean and that this mean is then influenced by the action which we take. This influence is then (as before) done in layers all the way down until we have this robust GMM.&lt;br&gt;&lt;br&gt;&lt;br&gt;&lt;/p&gt;" style="text;html=1;whiteSpace=wrap;overflow=hidden;rounded=0;" vertex="1" parent="1">
          <mxGeometry x="550" y="490" width="180" height="530" as="geometry" />
        </mxCell>
        <mxCell id="rP4cWOcRx5rP6SbN7MxK-18" value="" style="rounded=0;whiteSpace=wrap;html=1;fillColor=#f8cecc;strokeColor=#b85450;" vertex="1" parent="1">
          <mxGeometry x="195" y="800" width="60" height="30" as="geometry" />
        </mxCell>
        <mxCell id="rP4cWOcRx5rP6SbN7MxK-19" value="" style="rounded=0;whiteSpace=wrap;html=1;fillColor=#f8cecc;strokeColor=#b85450;" vertex="1" parent="1">
          <mxGeometry x="195" y="850" width="60" height="30" as="geometry" />
        </mxCell>
        <mxCell id="rP4cWOcRx5rP6SbN7MxK-20" value="" style="rounded=0;whiteSpace=wrap;html=1;fillColor=#f8cecc;strokeColor=#b85450;" vertex="1" parent="1">
          <mxGeometry x="195" y="910" width="60" height="30" as="geometry" />
        </mxCell>
        <mxCell id="rP4cWOcRx5rP6SbN7MxK-21" value="Generator" style="text;html=1;align=center;verticalAlign=middle;whiteSpace=wrap;rounded=0;" vertex="1" parent="1">
          <mxGeometry x="195" y="730" width="60" height="30" as="geometry" />
        </mxCell>
        <mxCell id="rP4cWOcRx5rP6SbN7MxK-22" value="" style="rounded=0;whiteSpace=wrap;html=1;fillColor=#d5e8d4;strokeColor=#82b366;" vertex="1" parent="1">
          <mxGeometry x="105" y="850" width="60" height="30" as="geometry" />
        </mxCell>
        <mxCell id="rP4cWOcRx5rP6SbN7MxK-23" value="" style="rounded=0;whiteSpace=wrap;html=1;fillColor=#d5e8d4;strokeColor=#82b366;" vertex="1" parent="1">
          <mxGeometry x="105" y="910" width="60" height="30" as="geometry" />
        </mxCell>
        <mxCell id="rP4cWOcRx5rP6SbN7MxK-24" value="State recognition" style="text;html=1;align=center;verticalAlign=middle;whiteSpace=wrap;rounded=0;" vertex="1" parent="1">
          <mxGeometry x="105" y="770" width="60" height="30" as="geometry" />
        </mxCell>
        <mxCell id="rP4cWOcRx5rP6SbN7MxK-25" value="" style="rounded=0;whiteSpace=wrap;html=1;fillColor=#ffe6cc;strokeColor=#d79b00;" vertex="1" parent="1">
          <mxGeometry x="295" y="800" width="60" height="30" as="geometry" />
        </mxCell>
        <mxCell id="rP4cWOcRx5rP6SbN7MxK-26" value="" style="rounded=0;whiteSpace=wrap;html=1;fillColor=#ffe6cc;strokeColor=#d79b00;" vertex="1" parent="1">
          <mxGeometry x="295" y="850" width="60" height="30" as="geometry" />
        </mxCell>
        <mxCell id="rP4cWOcRx5rP6SbN7MxK-27" value="" style="rounded=0;whiteSpace=wrap;html=1;fillColor=#ffe6cc;strokeColor=#d79b00;" vertex="1" parent="1">
          <mxGeometry x="295" y="910" width="60" height="30" as="geometry" />
        </mxCell>
        <mxCell id="rP4cWOcRx5rP6SbN7MxK-28" value="Recognition" style="text;html=1;align=center;verticalAlign=middle;whiteSpace=wrap;rounded=0;" vertex="1" parent="1">
          <mxGeometry x="295" y="730" width="60" height="30" as="geometry" />
        </mxCell>
        <mxCell id="rP4cWOcRx5rP6SbN7MxK-30" value="" style="rounded=0;whiteSpace=wrap;html=1;fillColor=#f8cecc;strokeColor=#b85450;" vertex="1" parent="1">
          <mxGeometry x="590" y="1070" width="60" height="30" as="geometry" />
        </mxCell>
        <mxCell id="rP4cWOcRx5rP6SbN7MxK-31" value="" style="rounded=0;whiteSpace=wrap;html=1;fillColor=#f8cecc;strokeColor=#b85450;" vertex="1" parent="1">
          <mxGeometry x="590" y="1120" width="60" height="30" as="geometry" />
        </mxCell>
        <mxCell id="rP4cWOcRx5rP6SbN7MxK-32" value="" style="rounded=0;whiteSpace=wrap;html=1;fillColor=#f8cecc;strokeColor=#b85450;" vertex="1" parent="1">
          <mxGeometry x="590" y="1180" width="60" height="30" as="geometry" />
        </mxCell>
        <mxCell id="rP4cWOcRx5rP6SbN7MxK-33" value="Transition model" style="text;html=1;align=center;verticalAlign=middle;whiteSpace=wrap;rounded=0;" vertex="1" parent="1">
          <mxGeometry x="590" y="1000" width="60" height="30" as="geometry" />
        </mxCell>
        <mxCell id="rP4cWOcRx5rP6SbN7MxK-34" value="" style="rounded=0;whiteSpace=wrap;html=1;fillColor=#d5e8d4;strokeColor=#82b366;" vertex="1" parent="1">
          <mxGeometry x="500" y="1120" width="60" height="30" as="geometry" />
        </mxCell>
        <mxCell id="rP4cWOcRx5rP6SbN7MxK-35" value="" style="rounded=0;whiteSpace=wrap;html=1;fillColor=#d5e8d4;strokeColor=#82b366;" vertex="1" parent="1">
          <mxGeometry x="500" y="1180" width="60" height="30" as="geometry" />
        </mxCell>
        <mxCell id="rP4cWOcRx5rP6SbN7MxK-36" value="State encoder" style="text;html=1;align=center;verticalAlign=middle;whiteSpace=wrap;rounded=0;" vertex="1" parent="1">
          <mxGeometry x="500" y="1040" width="60" height="30" as="geometry" />
        </mxCell>
        <mxCell id="rP4cWOcRx5rP6SbN7MxK-37" value="" style="rounded=0;whiteSpace=wrap;html=1;fillColor=#ffe6cc;strokeColor=#d79b00;" vertex="1" parent="1">
          <mxGeometry x="690" y="1070" width="60" height="30" as="geometry" />
        </mxCell>
        <mxCell id="rP4cWOcRx5rP6SbN7MxK-38" value="" style="rounded=0;whiteSpace=wrap;html=1;fillColor=#ffe6cc;strokeColor=#d79b00;" vertex="1" parent="1">
          <mxGeometry x="690" y="1120" width="60" height="30" as="geometry" />
        </mxCell>
        <mxCell id="rP4cWOcRx5rP6SbN7MxK-39" value="" style="rounded=0;whiteSpace=wrap;html=1;fillColor=#ffe6cc;strokeColor=#d79b00;" vertex="1" parent="1">
          <mxGeometry x="690" y="1180" width="60" height="30" as="geometry" />
        </mxCell>
        <mxCell id="rP4cWOcRx5rP6SbN7MxK-40" value="Action encoder" style="text;html=1;align=center;verticalAlign=middle;whiteSpace=wrap;rounded=0;" vertex="1" parent="1">
          <mxGeometry x="690" y="1000" width="60" height="30" as="geometry" />
        </mxCell>
      </root>
    </mxGraphModel>
  </diagram>
</mxfile>
